<mxfile host="app.diagrams.net" modified="2024-03-19T14:24:06.163Z" agent="Mozilla/5.0 (Windows NT 10.0; Win64; x64) AppleWebKit/537.36 (KHTML, like Gecko) Chrome/122.0.0.0 Safari/537.36" etag="xiqhum1Y5C5lqEY-dFWr" version="24.0.2" type="github">
  <diagram name="Page-1" id="w6Pe8GKEkhvot3tZcAZc">
    <mxGraphModel dx="2236" dy="1054" grid="1" gridSize="10" guides="1" tooltips="1" connect="1" arrows="1" fold="1" page="1" pageScale="1" pageWidth="850" pageHeight="1100" math="0" shadow="0">
      <root>
        <mxCell id="0" />
        <mxCell id="1" parent="0" />
        <mxCell id="1cdMpcuupWa2RAWfcW6Z-1" value="" style="rounded=0;whiteSpace=wrap;html=1;" parent="1" vertex="1">
          <mxGeometry x="220" y="50" width="1280" height="730" as="geometry" />
        </mxCell>
        <mxCell id="1cdMpcuupWa2RAWfcW6Z-3" value="" style="rounded=0;whiteSpace=wrap;html=1;" parent="1" vertex="1">
          <mxGeometry x="220" y="1000" width="1280" height="730" as="geometry" />
        </mxCell>
        <mxCell id="1cdMpcuupWa2RAWfcW6Z-4" value="&lt;font style=&quot;font-size: 19px;&quot;&gt;Support Services&lt;/font&gt;" style="rounded=0;whiteSpace=wrap;html=1;" parent="1" vertex="1">
          <mxGeometry x="1090" y="90" width="160" height="60" as="geometry" />
        </mxCell>
        <mxCell id="1cdMpcuupWa2RAWfcW6Z-5" value="&lt;font style=&quot;font-size: 19px;&quot;&gt;Home&lt;/font&gt;" style="rounded=0;whiteSpace=wrap;html=1;" parent="1" vertex="1">
          <mxGeometry x="270" y="90" width="120" height="60" as="geometry" />
        </mxCell>
        <mxCell id="1cdMpcuupWa2RAWfcW6Z-6" value="&lt;font style=&quot;font-size: 19px;&quot;&gt;Geospacial Landing &amp;gt;&lt;/font&gt;" style="rounded=0;whiteSpace=wrap;html=1;" parent="1" vertex="1">
          <mxGeometry x="480" y="90" width="120" height="60" as="geometry" />
        </mxCell>
        <mxCell id="1cdMpcuupWa2RAWfcW6Z-8" value="&amp;nbsp; &amp;nbsp; &amp;nbsp; &amp;nbsp;GIS" style="swimlane;fontStyle=0;childLayout=stackLayout;horizontal=1;startSize=30;horizontalStack=0;resizeParent=1;resizeParentMax=0;resizeLast=0;collapsible=1;marginBottom=0;whiteSpace=wrap;html=1;fillColor=default;swimlaneLine=0;align=left;fontSize=16;" parent="1" vertex="1">
          <mxGeometry x="600" y="120" width="250" height="150" as="geometry" />
        </mxCell>
        <mxCell id="mw3znr2qK6oq0vp47ZQH-12" style="edgeStyle=orthogonalEdgeStyle;rounded=0;orthogonalLoop=1;jettySize=auto;html=1;exitX=0;exitY=0.5;exitDx=0;exitDy=0;endArrow=none;endFill=0;" edge="1" parent="1cdMpcuupWa2RAWfcW6Z-8" source="1cdMpcuupWa2RAWfcW6Z-10">
          <mxGeometry relative="1" as="geometry">
            <mxPoint x="-20" y="90" as="targetPoint" />
          </mxGeometry>
        </mxCell>
        <mxCell id="1cdMpcuupWa2RAWfcW6Z-10" value="Survey/Contracting" style="text;strokeColor=none;fillColor=none;align=left;verticalAlign=middle;spacingLeft=4;spacingRight=4;overflow=hidden;points=[[0,0.5],[1,0.5]];portConstraint=eastwest;rotatable=0;whiteSpace=wrap;html=1;fontSize=16;" parent="1cdMpcuupWa2RAWfcW6Z-8" vertex="1">
          <mxGeometry y="30" width="250" height="30" as="geometry" />
        </mxCell>
        <mxCell id="mw3znr2qK6oq0vp47ZQH-11" style="edgeStyle=orthogonalEdgeStyle;rounded=0;orthogonalLoop=1;jettySize=auto;html=1;exitX=0;exitY=0.5;exitDx=0;exitDy=0;endArrow=none;endFill=0;" edge="1" parent="1cdMpcuupWa2RAWfcW6Z-8" source="1cdMpcuupWa2RAWfcW6Z-9">
          <mxGeometry relative="1" as="geometry">
            <mxPoint x="-20" y="130" as="targetPoint" />
          </mxGeometry>
        </mxCell>
        <mxCell id="1cdMpcuupWa2RAWfcW6Z-9" value="Remote Sensing" style="text;strokeColor=none;fillColor=none;align=left;verticalAlign=middle;spacingLeft=4;spacingRight=4;overflow=hidden;points=[[0,0.5],[1,0.5]];portConstraint=eastwest;rotatable=0;whiteSpace=wrap;html=1;fontSize=16;" parent="1cdMpcuupWa2RAWfcW6Z-8" vertex="1">
          <mxGeometry y="60" width="250" height="30" as="geometry" />
        </mxCell>
        <mxCell id="1cdMpcuupWa2RAWfcW6Z-11" value="Data Management" style="text;strokeColor=none;fillColor=none;align=left;verticalAlign=middle;spacingLeft=4;spacingRight=4;overflow=hidden;points=[[0,0.5],[1,0.5]];portConstraint=eastwest;rotatable=0;whiteSpace=wrap;html=1;fontSize=16;" parent="1cdMpcuupWa2RAWfcW6Z-8" vertex="1">
          <mxGeometry y="90" width="250" height="30" as="geometry" />
        </mxCell>
        <mxCell id="mw3znr2qK6oq0vp47ZQH-2" value="Application Development" style="text;strokeColor=none;fillColor=none;align=left;verticalAlign=middle;spacingLeft=4;spacingRight=4;overflow=hidden;points=[[0,0.5],[1,0.5]];portConstraint=eastwest;rotatable=0;whiteSpace=wrap;html=1;fontSize=16;" vertex="1" parent="1cdMpcuupWa2RAWfcW6Z-8">
          <mxGeometry y="120" width="250" height="30" as="geometry" />
        </mxCell>
        <mxCell id="1cdMpcuupWa2RAWfcW6Z-12" value="&lt;font style=&quot;font-size: 19px;&quot;&gt;Training&lt;/font&gt;" style="rounded=0;whiteSpace=wrap;html=1;" parent="1" vertex="1">
          <mxGeometry x="920" y="90" width="120" height="60" as="geometry" />
        </mxCell>
        <mxCell id="1cdMpcuupWa2RAWfcW6Z-13" value="&lt;font style=&quot;font-size: 19px;&quot;&gt;About Us&lt;/font&gt;" style="rounded=0;whiteSpace=wrap;html=1;" parent="1" vertex="1">
          <mxGeometry x="1290" y="90" width="160" height="60" as="geometry" />
        </mxCell>
        <mxCell id="mw3znr2qK6oq0vp47ZQH-3" value="&amp;nbsp; &amp;nbsp; &amp;nbsp;Menu for all" style="swimlane;fontStyle=0;childLayout=stackLayout;horizontal=1;startSize=30;horizontalStack=0;resizeParent=1;resizeParentMax=0;resizeLast=0;collapsible=1;marginBottom=0;whiteSpace=wrap;html=1;fillColor=default;swimlaneLine=0;align=left;fontSize=16;" vertex="1" parent="1">
          <mxGeometry x="600" y="320" width="250" height="90" as="geometry" />
        </mxCell>
        <mxCell id="mw3znr2qK6oq0vp47ZQH-4" value="Apps" style="text;strokeColor=none;fillColor=none;align=left;verticalAlign=middle;spacingLeft=4;spacingRight=4;overflow=hidden;points=[[0,0.5],[1,0.5]];portConstraint=eastwest;rotatable=0;whiteSpace=wrap;html=1;fontSize=16;" vertex="1" parent="mw3znr2qK6oq0vp47ZQH-3">
          <mxGeometry y="30" width="250" height="30" as="geometry" />
        </mxCell>
        <mxCell id="mw3znr2qK6oq0vp47ZQH-5" value="Projects" style="text;strokeColor=none;fillColor=none;align=left;verticalAlign=middle;spacingLeft=4;spacingRight=4;overflow=hidden;points=[[0,0.5],[1,0.5]];portConstraint=eastwest;rotatable=0;whiteSpace=wrap;html=1;fontSize=16;" vertex="1" parent="mw3znr2qK6oq0vp47ZQH-3">
          <mxGeometry y="60" width="250" height="30" as="geometry" />
        </mxCell>
        <mxCell id="mw3znr2qK6oq0vp47ZQH-9" style="edgeStyle=orthogonalEdgeStyle;rounded=0;orthogonalLoop=1;jettySize=auto;html=1;exitX=0;exitY=0.5;exitDx=0;exitDy=0;entryX=0;entryY=0.25;entryDx=0;entryDy=0;" edge="1" parent="1" source="mw3znr2qK6oq0vp47ZQH-2" target="mw3znr2qK6oq0vp47ZQH-3">
          <mxGeometry relative="1" as="geometry" />
        </mxCell>
        <mxCell id="mw3znr2qK6oq0vp47ZQH-10" style="edgeStyle=orthogonalEdgeStyle;rounded=0;orthogonalLoop=1;jettySize=auto;html=1;exitX=0;exitY=0.5;exitDx=0;exitDy=0;endArrow=none;endFill=0;" edge="1" parent="1">
          <mxGeometry relative="1" as="geometry">
            <mxPoint x="580" y="320" as="targetPoint" />
            <mxPoint x="600" y="225" as="sourcePoint" />
          </mxGeometry>
        </mxCell>
        <mxCell id="mw3znr2qK6oq0vp47ZQH-13" value="&lt;font style=&quot;font-size: 19px;&quot;&gt;Geospacial Landing &amp;gt;&lt;/font&gt;" style="rounded=0;whiteSpace=wrap;html=1;" vertex="1" parent="1">
          <mxGeometry x="800" y="920" width="120" height="60" as="geometry" />
        </mxCell>
        <mxCell id="mw3znr2qK6oq0vp47ZQH-14" value="&lt;font style=&quot;font-size: 17px;&quot;&gt;Geospatial text with image&lt;/font&gt;" style="rounded=0;whiteSpace=wrap;html=1;" vertex="1" parent="1">
          <mxGeometry x="540" y="1060" width="690" height="140" as="geometry" />
        </mxCell>
        <mxCell id="mw3znr2qK6oq0vp47ZQH-15" value="&lt;font style=&quot;font-size: 17px;&quot;&gt;Name text with image&lt;/font&gt;" style="rounded=0;whiteSpace=wrap;html=1;" vertex="1" parent="1">
          <mxGeometry x="540" y="1220" width="310" height="90" as="geometry" />
        </mxCell>
        <mxCell id="mw3znr2qK6oq0vp47ZQH-20" value="&lt;font style=&quot;font-size: 17px;&quot;&gt;Name text with image&lt;/font&gt;" style="rounded=0;whiteSpace=wrap;html=1;" vertex="1" parent="1">
          <mxGeometry x="540" y="1350" width="310" height="90" as="geometry" />
        </mxCell>
        <mxCell id="mw3znr2qK6oq0vp47ZQH-21" value="&lt;font style=&quot;font-size: 17px;&quot;&gt;Name text with image&lt;/font&gt;" style="rounded=0;whiteSpace=wrap;html=1;" vertex="1" parent="1">
          <mxGeometry x="540" y="1480" width="310" height="90" as="geometry" />
        </mxCell>
        <mxCell id="mw3znr2qK6oq0vp47ZQH-22" value="&lt;font style=&quot;font-size: 17px;&quot;&gt;Name text with image&lt;/font&gt;" style="rounded=0;whiteSpace=wrap;html=1;" vertex="1" parent="1">
          <mxGeometry x="910" y="1220" width="300" height="90" as="geometry" />
        </mxCell>
      </root>
    </mxGraphModel>
  </diagram>
</mxfile>
